<svg height="50" viewBox="0 0 195 50" width="195" xmlns="http://www.w3.org/2000/svg"><g fill="none"><path d="m66.1190257 35.6244256c1.3595282 0 2.5491154-.1866958 3.5687615-.5600874 1.0196462-.3733915 1.8693513-.911937 2.5491154-1.6156365.6797641-.7036994 1.1895871-1.5629787 1.5294692-2.5778377.339882-1.0148591.5146101-2.1637562.5241843-3.4466912l.071806-13.0399816h-1.8095128l-.0861673 13.2553998c-.0095742 1.1297488-.1460057 2.0967371-.4092946 2.9009651-.2632889.8042279-.6534352 1.4600566-1.1704389 1.9674862-.5170036.5074295-1.1632582.8808211-1.9387638 1.1201746-.7755055.2393536-1.6706878.3590303-2.6855468.3590303-1.0914522 0-2.0345052-.1483992-2.829159-.4451976s-1.448089-.7252412-1.9603056-1.2853286c-.5122167-.5600873-.8903953-1.2398514-1.1345359-2.0392922-.2441406-.7994409-.3662109-1.7065909-.3662109-2.7214499l.0430836-13.1117877h-1.7951516l-.0861673 13.269761v.3949334c0 .0335095.004787.0741996.0143612.1220703.0861673 1.1776195.3063725 2.225988.6606158 3.1451057.3542433.9191176.8544922 1.6994102 1.5007468 2.3408777.6462546.6414676 1.448089 1.1297488 2.4055032 1.4648438s2.0919501.5026425 3.4036075.5026425zm16.3028493-.330308v-21.6567095h-1.7807904v21.6567095zm11.2189798.330308c.3638174 0 .6869447-.031116.9693819-.0933479.2824372-.062232.5289713-.165154.7396025-.3087661v-1.2207031c-.3638174.1819087-.8903953.272863-1.5797335.272863-.5744485 0-1.0172526-.067019-1.3284122-.201057s-.5289714-.3374885-.6534352-.6103515c-.1244639-.2728631-.201057-.6199257-.2297794-1.041188-.0287225-.4212623-.0430837-.9143306-.0430837-1.479205v-9.2055376h3.7913603v-1.1776195h-3.7913603v-4.6243107l-1.7664292.4882813-.0143612 4.1360294h-2.9727712v1.1776195h2.9727712v9.6794577c0 .7084865.0526578 1.3260187.1579733 1.8525965.1053156.5265778.3015855.9645948.5888098 1.314051.2872242.3494562.6869447.6103516 1.1991613.7826861.5122166.1723346 1.1656518.2585019 1.9603056.2585019zm7.9015392-.330308v-8.2433364c.009574-.8042279.126858-1.5318627.35185-2.1829044.224992-.6510416.526578-1.2063419.904756-1.6659007.378179-.4595588.830557-.8114085 1.357135-1.0555492.526578-.2441406 1.105814-.3662109 1.737707-.3662109.363817 0 .658222.0167547.883215.0502642.224992.0335095.380572.0694126.466739.1077091l-.014361-1.6371783c-.134038-.0382965-.303979-.0646254-.509823-.0789866-.205844-.0143613-.447591-.0215419-.725242-.0215419-.545726.0095742-1.053155.0885609-1.522288.2369601s-.890395.3805721-1.263787.6965188-.706093.7204542-.998104 1.2135225c-.292012.4930683-.51461 1.0842716-.667797 1.7736098l-.057445-3.5615808h-1.8669573l.1436122 3.4179687v11.316636zm15.340648.330308c.746783 0 1.443302-.1077091 2.089557-.3231273.646254-.2154182 1.218309-.4930684 1.716165-.8329504.497855-.3398821.91433-.7132736 1.249425-1.1201746.335095-.4069011.569662-.8066215.7037-1.1991614l-.028723 3.1451057h1.809513v-14.7346047h-1.723345l-.071806 2.829159c-.34467-.4978554-.706093-.943053-1.084272-1.3355929-.378179-.3925398-.794654-.7252412-1.249426-.9981043-.454771-.272863-.957414-.4834942-1.507927-.6318934s-1.170439-.2225988-1.859777-.2225988c-1.17762 0-2.202053.2154182-3.0733.6462546s-1.598881 1.0004979-2.182904 1.7089844-1.019646 1.5175015-1.306871 2.427045c-.287224.9095435-.430836 1.8382353-.430836 2.7860754 0 .9191177.134038 1.8454159.402114 2.7788948.268076.9334788.684551 1.7760033 1.249426 2.5275735.564874.7515702 1.285328 1.3643153 2.161362 1.8382353s1.922009.7108801 3.137925.7108801zm.301586-1.4073989c-1.139323 0-2.070408-.19627-2.793256-.5888098s-1.287722-.8951823-1.694623-1.5079274-.686945-1.2949027-.840131-2.0464729c-.153187-.7515701-.22978-1.4911726-.22978-2.2188074s.100529-1.4600567.301586-2.1972656c.201057-.737209.52179-1.4050054.962201-2.0033893s1.002891-1.0842716 1.687443-1.4576631c.684551-.3733916 1.51032-.5600873 2.477309-.5600873 1.034007 0 1.898074.1723345 2.592199.5170036.694125.3446692 1.256606.804228 1.687442 1.3786765.430837.5744485.749177 1.2278837.955021 1.9603056s.337489 1.4863856.394933 2.2618911v.3590303c0 1.0244332-.143612 1.9196155-.430836 2.6855469s-.677371 1.4026118-1.170439 1.9100414c-.493068.5074295-1.074697.8856081-1.744887 1.1345358s-1.388251.3733916-2.154182.3733916zm14.277918 1.0770909v-8.4443933c-.009574-.7276348.088561-1.4097925.294405-2.0464729.205844-.6366805.509823-1.1895872.911937-1.6587202.402114-.4691329.902363-.8377374 1.500747-1.1058134.598384-.2680759 1.294902-.4021139 2.089556-.4021139 1.321232 0 2.314549.3638174 2.979952 1.0914522s1.031614 1.7712163 1.098633 3.1307445c0 .0095741.004787.2273858.014361.6534352.009574.4260493.014361.8161956.014361 1.1704388v7.611443h1.780791v-9.1768152l-.028723-.6318934c-.047871-.6606158-.165154-1.3068704-.35185-1.9387638-.186695-.6318934-.476313-1.1967677-.868853-1.6946231s-.909543-.8975759-1.551011-1.1991613c-.641468-.3015855-1.440908-.4523783-2.398323-.4523783-1.254212 0-2.324123.2585019-3.209731.7755056-.885608.5170036-1.644359 1.3403799-2.276252 2.4701286v-9.8087086h-1.78079v21.6567095zm22.23403.330308c.746783 0 1.443302-.1077091 2.089557-.3231273.646254-.2154182 1.218309-.4930684 1.716165-.8329504.497855-.3398821.91433-.7132736 1.249425-1.1201746.335095-.4069011.569662-.8066215.7037-1.1991614l-.028723 3.1451057h1.809513v-14.7346047h-1.723345l-.071806 2.829159c-.34467-.4978554-.706093-.943053-1.084272-1.3355929-.378179-.3925398-.794654-.7252412-1.249426-.9981043-.454771-.272863-.957414-.4834942-1.507927-.6318934s-1.170439-.2225988-1.859777-.2225988c-1.17762 0-2.202053.2154182-3.0733.6462546s-1.598881 1.0004979-2.182904 1.7089844-1.019646 1.5175015-1.306871 2.427045c-.287224.9095435-.430836 1.8382353-.430836 2.7860754 0 .9191177.134038 1.8454159.402114 2.7788948.268076.9334788.684551 1.7760033 1.249426 2.5275735.564874.7515702 1.285328 1.3643153 2.161362 1.8382353s1.922009.7108801 3.137925.7108801zm.301586-1.4073989c-1.139323 0-2.070408-.19627-2.793256-.5888098s-1.287722-.8951823-1.694623-1.5079274-.686945-1.2949027-.840131-2.0464729c-.153187-.7515701-.22978-1.4911726-.22978-2.2188074s.100529-1.4600567.301586-2.1972656c.201057-.737209.52179-1.4050054.962201-2.0033893s1.002891-1.0842716 1.687443-1.4576631c.684551-.3733916 1.51032-.5600873 2.477309-.5600873 1.034007 0 1.898074.1723345 2.592199.5170036.694125.3446692 1.256606.804228 1.687442 1.3786765.430837.5744485.749177 1.2278837.955021 1.9603056s.337489 1.4863856.394933 2.2618911v.3590303c0 1.0244332-.143612 1.9196155-.430836 2.6855469s-.677371 1.4026118-1.170439 1.9100414c-.493068.5074295-1.074697.8856081-1.744887 1.1345358s-1.388251.3733916-2.154182.3733916zm17.624081 1.4073989c1.292509 0 2.388748-.2585019 3.288717-.7755056.89997-.5170036 1.618031-1.3403799 2.154182-2.4701286v2.9153262h1.852597c-.028722-.9861366-.047871-1.7616421-.057445-2.3265165-.008617-.5083869-.013356-.8500402-.014217-1.0249598l-.000144-11.3831284h-1.780791v8.688534c0 .7084865-.107709 1.3643152-.323127 1.9674862-.215418.6031709-.526578 1.1273552-.933479 1.5725528s-.909543.7946538-1.507927 1.0483686-1.285329.3805722-2.060834.3805722c-.765932 0-1.412186-.1029221-1.938764-.3087661-.526578-.2058441-.955021-.5074296-1.285329-.9047565-.330307-.3973269-.557693-.8903952-.682157-1.4792049-.124464-.5888098-.201057-1.2709674-.22978-2.0464729v-8.9183134h-1.78079v9.0475643c0 .7084865.076593 1.4193666.229779 2.1326402.153187.7132736.428443 1.3571346.82577 1.9315832.397327.5744485.938266 1.0435814 1.622817 1.4073988.684551.3638175 1.558192.5457262 2.620922.5457262zm17.437385 0c.746783 0 1.476811-.0861673 2.190085-.2585019.713273-.1723345 1.34756-.438017 1.902861-.7970473.5553-.3590304 1.002891-.809015 1.342773-1.3499541.339882-.540939.509823-1.180013.509823-1.9172219 0-.4978554-.071806-.9310854-.215418-1.2996898-.143612-.3686045-.330308-.6869447-.560087-.9550207-.22978-.268076-.483495-.4906748-.761145-.6677964-.27765-.1771217-.545726-.3279144-.804228-.4523782-.708486-.3446692-1.369102-.6151387-1.981847-.8114086s-1.172833-.3590303-1.680262-.4882812c-.50743-.129251-.957414-.2489277-1.349954-.3590304-.39254-.1101026-.722848-.2537147-.990924-.4308364-.268076-.1771216-.471526-.4045075-.610351-.6821576s-.208238-.6558287-.208238-1.1345358c0-.3733916.086167-.706093.258502-.9981044.172334-.2920113.414081-.540939.725241-.7467831.31116-.205844.682158-.3638174 1.112994-.47392.430837-.1101026.899969-.1651539 1.407399-.1651539.871247 0 1.673081.071806 2.405503.2154182.732422.1436121 1.309264.3446691 1.730526.6031709l.416476-1.1345358c-.517004-.402114-1.180013-.6893383-1.989028-.8616728-.809015-.1723346-1.69223-.2585019-2.649644-.2585019-.660616 0-1.304477.0789867-1.931583.2369601-.627107.1579733-1.189588.3997204-1.687443.7252412-.497855.3255209-.897576.7324219-1.199161 1.2207031-.301586.4882813-.452379 1.0627298-.452379 1.7233456 0 .6318934.10771 1.1656518.323128 1.6012753s.521791.8114086.919117 1.1273553c.397327.3159466.876034.5888097 1.436122.8185891.560087.2297794 1.189587.4499847 1.888499.6606158.660616.1819087 1.268574.3566368 1.823874.5241843.555301.1675475 1.038795.3662109 1.450483.5959903.411688.2297795.732422.5122167.962201.8473116.22978.335095.344669.7563573.344669 1.2637868 0 .4404105-.100528.8281633-.301585 1.1632583-.201057.3350949-.485888.6127451-.854492.8329503-.368605.2202053-.806622.3877528-1.314051.5026425-.50743.1148897-1.06273.1723346-1.665901.1723346-.449985 0-.897576-.0287225-1.342774-.0861673-.445197-.0574449-.866459-.1460057-1.263786-.2656825-.397327-.1196767-.763538-.2704695-1.098633-.4523782s-.612745-.3973269-.83295-.6462546l-.445198 1.3499541c.248928.2776501.557694.5122166.926298.7036994.368605.1914829.773112.3470627 1.213523.4667394.44041.1196768.90715.2058441 1.400218.2585019s.993317.0789867 1.500747.0789867z" fill="#fff"/><path d="m21.0682598.42450179-20.16480722 11.64215691c-.46129578.2663292-.74546571.7585259-.74546571 1.2911844v23.2843138c0 .5326585.28416993 1.0248552.74546571 1.2911844l20.16480722 11.6421569c.4612958.2663293 1.0296356.2663293 1.4909314 0l20.1648072-11.6421569c.4612958-.2663292.7454657-.7585259.7454657-1.2911844v-23.2843138c0-.5326585-.2841699-1.0248552-.7454657-1.2911844l-20.1648072-11.64215691c-.4612958-.26632925-1.0296356-.26632925-1.4909314 0zm.7454657 1.29118448 20.1648072 11.64215683v23.2843138l-20.1648072 11.6421568-20.16480721-11.6421568v-23.2843138z" fill="#88dafc"/></g></svg>